HIERARCHY
ROOT Hips
{
	OFFSET 0.000000 0.000000 0.000000
	CHANNELS 6 Xposition Yposition Zposition Xrotation Yrotation Zrotation
	JOINT LeftUpLeg_virtual
	{
		OFFSET 0.000000 0.000000 0.000000
		CHANNELS 3 Xrotation Yrotation Zrotation
		JOINT LeftUpLeg
		{
			OFFSET 10.205400 -3.823500 0.155100
			CHANNELS 3 Xrotation Yrotation Zrotation
			JOINT LeftLeg
			{
				OFFSET 0.708757 -12.982077 0.567790
				CHANNELS 3 Xrotation Yrotation Zrotation
				JOINT LeftFoot
				{
					OFFSET -0.708756 -10.717838 -2.184338
					CHANNELS 3 Xrotation Yrotation Zrotation
					JOINT LeftToeBase
					{
						OFFSET 0.108149 -7.191104 7.560241
						CHANNELS 3 Xrotation Yrotation Zrotation
						JOINT LeftToe_End
						{
							OFFSET 0.070230 0.081724 4.490308
							CHANNELS 3 Xrotation Yrotation Zrotation
							End Site
							{
								OFFSET 0 0 0
							}
						}
					}
				}
			}
		}
	}
	JOINT RightUpLeg_virtual
	{
		OFFSET 0.000000 0.000000 0.000000
		CHANNELS 3 Xrotation Yrotation Zrotation
		JOINT RightUpLeg
		{
			OFFSET -10.205400 -3.823500 0.005500
			CHANNELS 3 Xrotation Yrotation Zrotation
			JOINT RightLeg
			{
				OFFSET -0.708756 -12.982134 0.610632
				CHANNELS 3 Xrotation Yrotation Zrotation
				JOINT RightFoot
				{
					OFFSET 0.708754 -10.717769 -1.945823
					CHANNELS 3 Xrotation Yrotation Zrotation
					JOINT RightToeBase
					{
						OFFSET -0.108140 -7.191069 7.372968
						CHANNELS 3 Xrotation Yrotation Zrotation
						JOINT RightToe_End
						{
							OFFSET -0.070227 0.081735 4.479403
							CHANNELS 3 Xrotation Yrotation Zrotation
							End Site
							{
								OFFSET 0 0 0
							}
						}
					}
				}
			}
		}
	}
	JOINT Spine_virtual
	{
		OFFSET 0.000000 0.000000 0.000000
		CHANNELS 3 Xrotation Yrotation Zrotation
		JOINT Spine
		{
			OFFSET 0.000000 6.876099 0.125700
			CHANNELS 3 Xrotation Yrotation Zrotation
			JOINT Spine1
			{
				OFFSET 0.000000 5.730043 0.104720
				CHANNELS 3 Xrotation Yrotation Zrotation
				JOINT Spine1_split
				{
					OFFSET 0.000000 5.730043 0.104720
					CHANNELS 3 Xrotation Yrotation Zrotation
					JOINT Spine2
					{
						OFFSET 0.000000 5.730043 0.104720
						CHANNELS 3 Xrotation Yrotation Zrotation
						JOINT Neck_virtual
						{
							OFFSET 0.000000 0.000000 0.000000
							CHANNELS 3 Xrotation Yrotation Zrotation
							JOINT Neck
							{
								OFFSET 0.000000 10.314075 0.188496
								CHANNELS 3 Xrotation Yrotation Zrotation
								JOINT Head
								{
									OFFSET 0.000000 7.643700 -2.377400
									CHANNELS 3 Xrotation Yrotation Zrotation
									JOINT HeadTop_End
									{
										OFFSET 0.000000 43.788605 -13.619600
										CHANNELS 3 Xrotation Yrotation Zrotation
										End Site
										{
											OFFSET 0 0 0
										}
									}
								}
							}
						}
						JOINT LeftShoulder_virtual
						{
							OFFSET 0.000000 0.000000 0.000000
							CHANNELS 3 Xrotation Yrotation Zrotation
							JOINT LeftShoulder
							{
								OFFSET 2.196100 4.412489 0.087492
								CHANNELS 3 Xrotation Yrotation Zrotation
								JOINT LeftShoulder_split
								{
									OFFSET 2.196100 4.412489 0.087492
									CHANNELS 3 Xrotation Yrotation Zrotation
									JOINT LeftArm
									{
										OFFSET 8.771219 -2.981674 -0.026999
										CHANNELS 3 Xrotation Yrotation Zrotation
										JOINT LeftForeArm
										{
											OFFSET 8.512804 0.000000 -0.000000
											CHANNELS 3 Xrotation Yrotation Zrotation
											JOINT LeftHand
											{
												OFFSET 18.484802 0.000000 -0.000000
												CHANNELS 3 Xrotation Yrotation Zrotation
												End Site
												{
													OFFSET 0 0 0
												}
											}
										}
									}
								}
							}
						}
						JOINT RightShoulder_virtual
						{
							OFFSET 0.000000 0.000000 0.000000
							CHANNELS 3 Xrotation Yrotation Zrotation
							JOINT RightShoulder
							{
								OFFSET -2.196100 4.412496 0.070690
								CHANNELS 3 Xrotation Yrotation Zrotation
								JOINT RightShoulder_split
								{
									OFFSET -2.196100 4.412496 0.070690
									CHANNELS 3 Xrotation Yrotation Zrotation
									JOINT RightArm
									{
										OFFSET -8.771282 -2.981682 -0.094208
										CHANNELS 3 Xrotation Yrotation Zrotation
										JOINT RightForeArm
										{
											OFFSET -8.494598 0.000000 0.000000
											CHANNELS 3 Xrotation Yrotation Zrotation
											JOINT RightHand
											{
												OFFSET -18.483803 0.000000 0.000001
												CHANNELS 3 Xrotation Yrotation Zrotation
												End Site
												{
													OFFSET 0 0 0
												}
											}
										}
									}
								}
							}
						}
					}
				}
			}
		}
	}
}
MOTION
Frames: 4
Frame Time: 0.03333333
2.385727 18.749992 8.822327 0.000000 0.000000 0.000000 13.162212 16.891550 -0.021252 -96.855286 -18.687433 11.895006 89.591544 -2.569309 -2.206623 8.806242 -9.361667 -21.942927 -8.294843 -0.011458 -3.867242 0.000000 0.000000 0.000000 13.240083 16.001772 0.057989 -96.836967 18.244415 -15.044339 89.643193 6.172341 2.088296 6.318199 -7.529464 21.191895 3.763708 -0.363950 -10.282953 0.000000 0.000000 0.000000 15.434624 19.969465 -1.155696 8.493165 -4.600814 -2.661540 13.221918 -2.265902 -1.314898 0.166028 -0.305069 -0.000161 0.000000 0.000000 0.000000 12.128095 -0.726648 -1.020095 -5.002411 9.433686 3.337337 -51.114759 11.588621 4.726455 0.000000 0.000000 0.000000 10.147583 -2.410993 -2.010588 3.437746 -6.431505 13.457717 0.320266 -1.723131 0.758023 -64.164669 -39.150200 -10.767008 -176.807534 -83.557556 -179.820672 0.000000 0.000000 0.000000 12.001568 -2.267199 -1.090245 0.997543 9.988599 -8.600549 3.612234 -5.333068 13.985134 -61.748974 29.721432 27.388183 -150.439383 59.338184 144.463023 0.000000 0.000000 0.000000 
2.327876 18.676952 8.780639 0.000000 0.000000 0.000000 13.124961 17.016151 -0.067470 -97.180444 -18.844133 11.884237 89.535638 -2.655807 -2.220124 9.111626 -9.565332 -21.646138 -7.819580 -0.049916 -3.744585 0.000000 0.000000 0.000000 13.274217 16.332729 -0.052441 -96.925295 18.389125 -14.986494 89.571750 5.999822 2.250862 6.287129 -7.759775 21.027058 3.701064 -0.444439 -9.976868 0.000000 0.000000 0.000000 15.199594 20.377070 -1.266715 8.402978 -4.228828 -3.059532 13.195915 -2.204394 -1.028972 0.159504 -0.348212 0.000235 0.000000 0.000000 0.000000 12.149157 -0.593821 -0.802369 -3.211779 8.885725 2.884529 -49.230388 10.816894 4.892015 0.000000 0.000000 0.000000 10.129130 -2.307079 -1.724179 3.390493 -5.609166 13.872062 0.473338 -1.888663 1.447685 -64.103286 -38.243527 -12.318511 -177.373292 -83.982947 179.951497 0.000000 0.000000 0.000000 12.030528 -2.176151 -0.828917 1.240001 9.260007 -9.047724 3.686826 -4.823945 13.792873 -61.911840 29.155164 26.610567 -149.831647 59.154144 143.960840 0.000000 0.000000 0.000000 
2.257975 18.594036 8.722079 0.000000 0.000000 0.000000 13.006876 17.116104 -0.025397 -97.462257 -18.867412 11.955410 89.439872 -2.700225 -2.272982 9.408397 -9.755778 -21.273710 -7.448607 -0.107443 -3.566419 0.000000 0.000000 0.000000 13.228078 16.645741 -0.062371 -97.100968 18.629978 -14.986856 89.753221 5.836970 2.438597 6.179158 -8.007102 20.849214 3.777409 -0.541574 -9.750714 0.000000 0.000000 0.000000 14.866062 20.788801 -1.317963 8.424637 -3.841910 -3.417023 13.322223 -2.062639 -0.821051 0.130982 -0.357189 0.018560 0.000000 0.000000 0.000000 12.192458 -0.403831 -0.655439 -1.075114 7.931468 2.464964 -46.943624 8.901184 4.714582 0.000000 0.000000 0.000000 10.279426 -2.156208 -1.560791 3.442422 -5.067850 14.373547 0.686508 -2.501464 2.142486 -62.382078 -36.685407 -13.988634 179.886924 -83.611406 177.663233 0.000000 0.000000 0.000000 12.232118 -1.974213 -0.595526 1.491126 8.905890 -8.981244 4.170913 -3.575251 13.689528 -60.411883 28.493536 25.349778 -148.902509 59.115957 143.114115 0.000000 0.000000 0.000000 
2.196739 18.513372 8.674458 0.000000 0.000000 0.000000 12.879953 17.142842 0.066749 -97.678679 -18.795248 12.084632 89.361387 -2.715608 -2.355494 9.664509 -9.917627 -20.891547 -7.357261 -0.177156 -3.346184 0.000000 0.000000 0.000000 13.142770 16.899889 -0.005255 -97.374442 18.931649 -15.007543 90.175839 5.737915 2.603685 6.130027 -8.157837 20.801601 3.815013 -0.618683 -9.662462 0.000000 0.000000 0.000000 14.534388 21.063825 -1.305161 8.519641 -3.506139 -3.623819 13.509553 -1.861615 -0.716671 0.113581 -0.320966 0.048008 0.000000 0.000000 0.000000 12.179178 -0.185679 -0.599958 1.205781 6.797102 2.136724 -44.782730 6.292045 4.246259 0.000000 0.000000 0.000000 10.494886 -1.992198 -1.556393 3.570299 -4.837504 14.729347 0.984468 -3.745592 2.786007 -59.133906 -35.002397 -15.393233 175.774713 -82.528766 174.031526 0.000000 0.000000 0.000000 12.489681 -1.693501 -0.413257 1.744780 8.921312 -8.579833 4.663303 -2.092564 13.586938 -57.665183 27.726581 23.731871 -147.851657 59.193254 142.124175 0.000000 0.000000 0.000000 
